<?xml version="1.0" encoding="utf-8"?>
<!-- Generator: Adobe Illustrator 28.1.0, SVG Export Plug-In . SVG Version: 6.00 Build 0)  -->
<svg version="1.1" xmlns="http://www.w3.org/2000/svg" xmlns:xlink="http://www.w3.org/1999/xlink" x="0px" y="0px"
	 viewBox="0 0 770.02 211.84" style="enable-background:new 0 0 770.02 211.84;" xml:space="preserve">
<style type="text/css">
	.st0{fill:url(#SVGID_1_);}
	.st1{fill:#FFB200;}
	.st2{fill:url(#SVGID_00000158725279772450456120000003648802358211465600_);}
	.st3{display:none;}
	.st4{display:inline;opacity:0.9;}
	.st5{fill:#CCCCCC;}
	.st6{fill:none;stroke:#B3B3B3;stroke-width:0.5;stroke-miterlimit:10;}
	.st7{fill:none;stroke:#B3B3B3;stroke-width:0.5;stroke-miterlimit:10;stroke-dasharray:11.4944,11.4944;}
	.st8{fill:none;stroke:#B3B3B3;stroke-width:0.5;stroke-miterlimit:10;stroke-dasharray:21.4682,21.4682;}
</style>
<g id="Calque_1">
	<g>
		<g>
			<linearGradient id="SVGID_1_" gradientUnits="userSpaceOnUse" x1="83.4371" y1="128.1759" x2="142.2233" y2="69.3896">
				<stop  offset="0" style="stop-color:#FFB200"/>
				<stop  offset="1" style="stop-color:#F80000"/>
			</linearGradient>
			<polygon class="st0" points="70.27,70.85 70.27,94.35 93.76,94.35 93.76,117.85 117.26,117.85 117.26,141.35 140.76,141.35 
				140.76,70.85 			"/>
			<rect x="70.27" y="117.85" class="st1" width="23.5" height="23.5"/>
		</g>
		<g>
			<path d="M183.3,98.27v6.2h-25.85V71.08h25.23v6.2h-17.55v7.25h15.5v6.01h-15.5v7.73H183.3z"/>
			<path d="M189.69,89.78v-18.7h7.73v18.41c0,6.34,2.77,8.97,7.44,8.97c4.72,0,7.44-2.62,7.44-8.97V71.08h7.63v18.7
				c0,9.82-5.63,15.26-15.12,15.26C195.31,105.04,189.69,99.6,189.69,89.78z"/>
			<path d="M248.78,104.47l-6.44-9.3h-0.38h-6.72v9.3h-7.73V71.08h14.45c8.92,0,14.5,4.63,14.5,12.11c0,5.01-2.53,8.68-6.87,10.54
				l7.49,10.73H248.78z M241.53,77.38h-6.29v11.64h6.29c4.72,0,7.11-2.19,7.11-5.82C248.63,79.52,246.25,77.38,241.53,77.38z"/>
			<path d="M278.79,78.66l-10.73,25.8h-7.92l14.88-33.39h7.63l14.93,33.39h-8.11L278.79,78.66z"/>
			<path d="M667.49,101.35v2.97h-23V71.8h22.3v2.97h-18.86v11.57h16.82v2.93h-16.82v12.08H667.49z"/>
			<polygon points="296.87,77.62 306.83,77.62 306.83,104.77 312.08,104.77 314.53,104.77 314.53,77.62 325.18,77.62 325.18,71.35 
				296.87,71.35 			"/>
			<polygon points="339.34,90.82 354.79,90.82 354.79,84.83 339.34,84.83 339.34,77.6 356.83,77.6 356.83,71.42 331.69,71.42 
				331.69,104.69 357.45,104.69 357.45,98.52 339.34,98.52 			"/>
			<path d="M382.22,77.41c3.33,0,6.13,1.33,8.37,3.9l4.94-4.56c-3.14-3.8-7.94-5.89-13.69-5.89c-10.36,0-18.06,7.18-18.06,17.21
				c0,10.03,7.7,17.21,18.01,17.21c5.8,0,10.6-2.09,13.74-5.94l-4.94-4.56c-2.23,2.61-5.04,3.95-8.37,3.95
				c-6.23,0-10.65-4.37-10.65-10.65C371.57,81.78,375.99,77.41,382.22,77.41z"/>
			<polygon points="425.9,71.42 425.9,84.54 410.79,84.54 410.79,71.42 403.09,71.42 403.09,104.69 410.79,104.69 410.79,91.05 
				425.9,91.05 425.9,104.69 433.6,104.69 433.6,71.42 			"/>
			
				<linearGradient id="SVGID_00000165939121666963056750000007875335883400657304_" gradientUnits="userSpaceOnUse" x1="256.2174" y1="118.0999" x2="306.34" y2="84.1935">
				<stop  offset="0" style="stop-color:#FFD400"/>
				<stop  offset="1" style="stop-color:#FF2061"/>
			</linearGradient>
			<circle style="fill:url(#SVGID_00000165939121666963056750000007875335883400657304_);" cx="278.86" cy="102.78" r="2.25"/>
			<polygon points="474.11,71.42 474.11,104.7 470.33,104.7 448.75,74.88 448.78,74.83 448.75,74.81 448.75,74.88 448.78,104.7 
				445.46,104.7 445.46,71.42 450.68,71.42 470.79,99.6 470.79,71.42 			"/>
			<path d="M499.16,74.26c7.61,0,13.8,6.19,13.8,13.8c0,7.61-6.19,13.8-13.8,13.8c-7.61,0-13.8-6.19-13.8-13.8
				C485.36,80.45,491.55,74.26,499.16,74.26 M499.16,70.85c-9.5,0-17.21,7.7-17.21,17.21c0,9.5,7.7,17.21,17.21,17.21
				s17.21-7.7,17.21-17.21C516.37,78.56,508.67,70.85,499.16,70.85L499.16,70.85z"/>
			<path d="M565.88,74.26c7.61,0,13.8,6.19,13.8,13.8c0,7.61-6.19,13.8-13.8,13.8s-13.8-6.19-13.8-13.8
				C552.08,80.45,558.27,74.26,565.88,74.26 M565.88,70.85c-9.5,0-17.21,7.7-17.21,17.21c0,9.5,7.7,17.21,17.21,17.21
				s17.21-7.7,17.21-17.21C583.09,78.56,575.39,70.85,565.88,70.85L565.88,70.85z"/>
			<polygon points="545.39,104.39 522.97,104.39 522.96,71.69 526.22,71.69 526.22,101.14 545.39,101.14 			"/>
			<rect x="629.8" y="71.75" width="3.25" height="32.61"/>
			<path d="M612.34,104.48h-10.63c-6.44,0-11.68-5.24-11.68-11.68v-7.68c0-7.44,6.05-13.49,13.49-13.49h13.65v3.25h-13.65
				c-5.64,0-10.23,4.59-10.23,10.23v7.68c0,4.65,3.78,8.43,8.43,8.43h10.63c1.36,0,2.47-1.11,2.47-2.47v-6.74h-8.39v-3.25h11.64
				v9.99C618.07,101.91,615.5,104.48,612.34,104.48z"/>
			<g>
				<path d="M673.82,100.17l1.41-2.45c2.45,2.08,6.79,3.85,11.5,3.85c6.73,0,9.42-2.39,9.42-6c0-9.3-21.17-2.45-21.17-14.99
					c0-4.83,4.04-8.75,12.11-8.75c4.04,0,8.44,1.22,10.95,3.12l-1.41,2.45c-2.69-1.96-6.18-2.88-9.6-2.88c-6.24,0-8.99,2.57-8.99,6
					c0,9.6,21.17,2.81,21.17,14.99c0,5.2-4.46,8.75-12.6,8.75C681.34,104.27,676.33,102.5,673.82,100.17z"/>
			</g>
		</g>
		<g>
			<path d="M172.92,138.45v2.65h-15.47v-21.32h15.04v2.65h-12v6.55h10.69v2.59H160.5v6.88H172.92z"/>
			<path d="M181.33,131.91v-12.12h3.05v12c0,4.72,2.16,6.85,6,6.85c3.84,0,6.03-2.13,6.03-6.85v-12h2.95v12.12
				c0,6.18-3.38,9.44-9.01,9.44C184.74,141.35,181.33,138.09,181.33,131.91z"/>
			<path d="M223.5,141.1l-4.6-6.55c-0.43,0.03-0.88,0.06-1.34,0.06h-5.27v6.49h-3.05v-21.32h8.31c5.54,0,8.89,2.8,8.89,7.43
				c0,3.29-1.71,5.66-4.69,6.73l5.05,7.16H223.5z M223.41,127.22c0-3.05-2.04-4.78-5.94-4.78h-5.18v9.59h5.18
				C221.37,132.03,223.41,130.26,223.41,127.22z"/>
			<path d="M233.31,130.44c0-6.24,4.81-10.9,11.36-10.9c6.49,0,11.3,4.63,11.3,10.9c0,6.27-4.81,10.9-11.3,10.9
				C238.12,141.35,233.31,136.69,233.31,130.44z M252.92,130.44c0-4.72-3.53-8.19-8.25-8.19c-4.78,0-8.31,3.47-8.31,8.19
				c0,4.72,3.53,8.19,8.31,8.19C249.39,138.64,252.92,135.16,252.92,130.44z"/>
			<path d="M281.49,127.22c0,4.63-3.35,7.43-8.89,7.43h-5.27v6.46h-3.05v-21.32h8.31C278.14,119.79,281.49,122.59,281.49,127.22z
				 M278.44,127.22c0-3.05-2.04-4.78-5.94-4.78h-5.18V132h5.18C276.4,132,278.44,130.26,278.44,127.22z"/>
			<path d="M305.09,138.45v2.65h-15.47v-21.32h15.04v2.65h-12v6.55h10.69v2.59h-10.69v6.88H305.09z"/>
			<path d="M315.96,120.4c0,0.58-0.09,1.04-0.49,2.16l-1.46,4.26h-1.92l1.13-4.54c-0.76-0.27-1.28-0.97-1.28-1.89
				c0-1.22,0.88-2.07,2.04-2.07C315.14,118.33,315.96,119.21,315.96,120.4z"/>
			<path d="M322.6,138.67l1.13-2.38c1.58,1.43,4.29,2.47,7.03,2.47c3.68,0,5.27-1.43,5.27-3.29c0-5.21-12.91-1.92-12.91-9.84
				c0-3.29,2.56-6.09,8.16-6.09c2.5,0,5.09,0.67,6.85,1.89l-1,2.44c-1.86-1.19-3.96-1.74-5.85-1.74c-3.62,0-5.18,1.52-5.18,3.38
				c0,5.21,12.91,1.95,12.91,9.77c0,3.26-2.62,6.06-8.25,6.06C327.5,141.35,324.3,140.25,322.6,138.67z"/>
			<path d="M357.01,138.67l1.13-2.38c1.58,1.43,4.29,2.47,7.03,2.47c3.68,0,5.27-1.43,5.27-3.29c0-5.21-12.91-1.92-12.91-9.84
				c0-3.29,2.56-6.09,8.16-6.09c2.5,0,5.09,0.67,6.85,1.89l-1,2.44c-1.86-1.19-3.96-1.74-5.85-1.74c-3.62,0-5.18,1.52-5.18,3.38
				c0,5.21,12.91,1.95,12.91,9.77c0,3.26-2.62,6.06-8.25,6.06C361.91,141.35,358.71,140.25,357.01,138.67z"/>
			<path d="M385.45,122.44h-7.31v-2.65h17.63v2.65h-7.31v18.67h-3.01V122.44z"/>
			<path d="M415.27,135.77h-11.33l-2.35,5.33h-3.14l9.65-21.32h3.01l9.68,21.32h-3.2L415.27,135.77z M414.2,133.34l-4.6-10.44
				l-4.6,10.44H414.2z"/>
			<path d="M441.88,141.1l-4.6-6.55c-0.43,0.03-0.88,0.06-1.34,0.06h-5.27v6.49h-3.05v-21.32h8.31c5.54,0,8.89,2.8,8.89,7.43
				c0,3.29-1.71,5.66-4.69,6.73l5.05,7.16H441.88z M441.79,127.22c0-3.05-2.04-4.78-5.94-4.78h-5.18v9.59h5.18
				C439.75,132.03,441.79,130.26,441.79,127.22z"/>
			<path d="M457.35,122.44h-7.31v-2.65h17.63v2.65h-7.31v18.67h-3.01V122.44z"/>
			<path d="M474.07,131.91v-12.12h3.05v12c0,4.72,2.16,6.85,6,6.85c3.84,0,6.03-2.13,6.03-6.85v-12h2.95v12.12
				c0,6.18-3.38,9.44-9.01,9.44C477.48,141.35,474.07,138.09,474.07,131.91z"/>
			<path d="M519.2,127.22c0,4.63-3.35,7.43-8.89,7.43h-5.27v6.46h-3.05v-21.32h8.31C515.85,119.79,519.2,122.59,519.2,127.22z
				 M516.15,127.22c0-3.05-2.04-4.78-5.94-4.78h-5.18V132h5.18C514.11,132,516.15,130.26,516.15,127.22z"/>
			<path d="M557.81,135.35c0,3.65-2.77,5.76-8.16,5.76h-10.17v-21.32h9.56c4.9,0,7.64,2.07,7.64,5.51c0,2.31-1.19,3.93-2.86,4.75
				C556.23,130.72,557.81,132.52,557.81,135.35z M542.53,122.25v6.82h6.24c3.11,0,4.87-1.16,4.87-3.41c0-2.25-1.77-3.41-4.87-3.41
				H542.53z M554.74,135.1c0-2.47-1.83-3.56-5.21-3.56h-7v7.1h7C552.91,138.64,554.74,137.57,554.74,135.1z"/>
			<path d="M566.01,131.91v-12.12h3.04v12c0,4.72,2.16,6.85,6,6.85c3.84,0,6.03-2.13,6.03-6.85v-12h2.95v12.12
				c0,6.18-3.38,9.44-9.01,9.44C569.42,141.35,566.01,138.09,566.01,131.91z"/>
			<path d="M593.93,119.79h3.05v21.32h-3.05V119.79z"/>
			<path d="M607.03,119.79h3.05v18.67h11.54v2.65h-14.59V119.79z"/>
			<path d="M628.77,119.79h8.98c6.85,0,11.51,4.32,11.51,10.66c0,6.33-4.66,10.66-11.51,10.66h-8.98V119.79z M637.57,138.45
				c5.27,0,8.65-3.23,8.65-8.01c0-4.78-3.38-8.01-8.65-8.01h-5.76v16.02H637.57z"/>
			<path d="M673.05,138.45v2.65h-15.47v-21.32h15.04v2.65h-12v6.55h10.69v2.59h-10.69v6.88H673.05z"/>
			<path d="M695.89,141.1l-4.6-6.55c-0.43,0.03-0.88,0.06-1.34,0.06h-5.27v6.49h-3.05v-21.32h8.31c5.54,0,8.89,2.8,8.89,7.43
				c0,3.29-1.71,5.66-4.69,6.73l5.05,7.16H695.89z M695.79,127.22c0-3.05-2.04-4.78-5.94-4.78h-5.18v9.59h5.18
				C693.75,132.03,695.79,130.26,695.79,127.22z"/>
		</g>
	</g>
</g>
<g id="Calque_2" class="st3">
	<g class="st4">
		<polygon class="st5" points="70.49,0 47,0 47,23.5 23.5,23.5 23.5,47 0,47 0,70.49 70.49,70.49 		"/>
		<rect x="0" y="0" class="st5" width="23.5" height="23.5"/>
	</g>
	<g class="st4">
		<polygon class="st5" points="769.7,70.49 769.7,47 746.2,47 746.2,23.5 722.7,23.5 722.7,0 699.21,0 699.21,70.49 		"/>
		<rect x="746.2" y="0" class="st5" width="23.5" height="23.5"/>
	</g>
	<g class="st4">
		<polygon class="st5" points="699.21,211.6 722.7,211.6 722.7,188.1 746.2,188.1 746.2,164.6 769.7,164.6 769.7,141.1 
			699.21,141.1 		"/>
		<rect x="746.2" y="188.1" class="st5" width="23.5" height="23.5"/>
	</g>
	<g class="st4">
		<polygon class="st5" points="0,141.1 0,164.6 23.5,164.6 23.5,188.1 47,188.1 47,211.6 70.49,211.6 70.49,141.1 		"/>
		<rect y="188.1" class="st5" width="23.5" height="23.5"/>
	</g>
	<g class="st4">
		<line class="st5" x1="70.49" y1="232.49" x2="70.49" y2="-20.89"/>
		<g>
			<line class="st6" x1="70.49" y1="232.49" x2="70.49" y2="226.49"/>
			<line class="st7" x1="70.49" y1="215" x2="70.49" y2="-9.14"/>
			<line class="st6" x1="70.49" y1="-14.89" x2="70.49" y2="-20.89"/>
		</g>
	</g>
	<g class="st4">
		<line class="st5" x1="0" y1="232.49" x2="0" y2="-20.89"/>
		<g>
			<line class="st6" x1="0" y1="232.49" x2="0" y2="226.49"/>
			<line class="st7" x1="0" y1="215" x2="0" y2="-9.14"/>
			<line class="st6" x1="0" y1="-14.89" x2="0" y2="-20.89"/>
		</g>
	</g>
	<g class="st4">
		<line class="st5" x1="699.21" y1="232.49" x2="699.21" y2="-20.89"/>
		<g>
			<line class="st6" x1="699.21" y1="232.49" x2="699.21" y2="226.49"/>
			<line class="st7" x1="699.21" y1="215" x2="699.21" y2="-9.14"/>
			<line class="st6" x1="699.21" y1="-14.89" x2="699.21" y2="-20.89"/>
		</g>
	</g>
	<g class="st4">
		<line class="st5" x1="770.02" y1="232.49" x2="770.02" y2="-20.89"/>
		<g>
			<line class="st6" x1="770.02" y1="232.49" x2="770.02" y2="226.49"/>
			<line class="st7" x1="770.02" y1="215" x2="770.02" y2="-9.14"/>
			<line class="st6" x1="770.02" y1="-14.89" x2="770.02" y2="-20.89"/>
		</g>
	</g>
	<g class="st4">
		<line class="st5" x1="-22.92" y1="70.8" x2="792.94" y2="70.8"/>
		<g>
			<line class="st6" x1="-22.92" y1="70.8" x2="-12.15" y2="70.8"/>
			<line class="st8" x1="9.32" y1="70.8" x2="771.44" y2="70.8"/>
			<line class="st6" x1="782.17" y1="70.8" x2="792.94" y2="70.8"/>
		</g>
	</g>
	<g class="st4">
		<line class="st5" x1="-22.92" y1="-0.36" x2="792.94" y2="-0.36"/>
		<g>
			<line class="st6" x1="-22.92" y1="-0.36" x2="-12.15" y2="-0.36"/>
			<line class="st8" x1="9.32" y1="-0.36" x2="771.44" y2="-0.36"/>
			<line class="st6" x1="782.17" y1="-0.36" x2="792.94" y2="-0.36"/>
		</g>
	</g>
	<g class="st4">
		<line class="st5" x1="-22.92" y1="141.35" x2="792.94" y2="141.35"/>
		<g>
			<line class="st6" x1="-22.92" y1="141.35" x2="-12.15" y2="141.35"/>
			<line class="st8" x1="9.32" y1="141.35" x2="771.44" y2="141.35"/>
			<line class="st6" x1="782.17" y1="141.35" x2="792.94" y2="141.35"/>
		</g>
	</g>
	<g class="st4">
		<line class="st5" x1="-22.92" y1="211.6" x2="792.94" y2="211.6"/>
		<g>
			<line class="st6" x1="-22.92" y1="211.6" x2="-12.15" y2="211.6"/>
			<line class="st8" x1="9.32" y1="211.6" x2="771.44" y2="211.6"/>
			<line class="st6" x1="782.17" y1="211.6" x2="792.94" y2="211.6"/>
		</g>
	</g>
</g>
</svg>
